<svg width="132" height="132" viewBox="0 0 132 132" fill="none" xmlns="http://www.w3.org/2000/svg" role="img" aria-labelledby="title desc">
  <title id="title">MathModel Skill logo</title>
  <desc id="desc">A vector logo showing a math modeling document with axes, data points, a fitted curve, and workflow nodes.</desc>
  <defs>
    <linearGradient id="bg" x1="18" y1="13" x2="114" y2="119" gradientUnits="userSpaceOnUse">
      <stop stop-color="#0F172A"/>
      <stop offset="0.5" stop-color="#1D4ED8"/>
      <stop offset="1" stop-color="#0891B2"/>
    </linearGradient>
    <linearGradient id="page" x1="39" y1="24" x2="92" y2="102" gradientUnits="userSpaceOnUse">
      <stop stop-color="#FFFFFF"/>
      <stop offset="1" stop-color="#E0F2FE"/>
    </linearGradient>
    <linearGradient id="curve" x1="42" y1="75" x2="89" y2="47" gradientUnits="userSpaceOnUse">
      <stop stop-color="#22C55E"/>
      <stop offset="0.52" stop-color="#0EA5E9"/>
      <stop offset="1" stop-color="#2563EB"/>
    </linearGradient>
    <linearGradient id="chip" x1="38" y1="96" x2="94" y2="96" gradientUnits="userSpaceOnUse">
      <stop stop-color="#14B8A6"/>
      <stop offset="1" stop-color="#22C55E"/>
    </linearGradient>
    <filter id="shadow" x="0" y="0" width="132" height="132" filterUnits="userSpaceOnUse" color-interpolation-filters="sRGB">
      <feDropShadow dx="0" dy="8" stdDeviation="8" flood-color="#020617" flood-opacity="0.24"/>
    </filter>
    <pattern id="grid" width="12" height="12" patternUnits="userSpaceOnUse">
      <path d="M12 0H0V12" stroke="#BFDBFE" stroke-opacity="0.12" stroke-width="1"/>
    </pattern>
  </defs>

  <rect x="8" y="8" width="116" height="116" rx="28" fill="url(#bg)" filter="url(#shadow)"/>
  <rect x="8" y="8" width="116" height="116" rx="28" fill="url(#grid)"/>

  <path d="M24 98C33 87 37 79 46 77C56 75 58 88 68 83C79 78 82 57 94 53C100 51 105 53 110 58" stroke="#BAE6FD" stroke-opacity="0.55" stroke-width="3" stroke-linecap="round"/>
  <circle cx="24" cy="98" r="3.5" fill="#A7F3D0" opacity="0.85"/>
  <circle cx="46" cy="77" r="3.5" fill="#A7F3D0" opacity="0.85"/>
  <circle cx="68" cy="83" r="3.5" fill="#A7F3D0" opacity="0.85"/>
  <circle cx="94" cy="53" r="3.5" fill="#A7F3D0" opacity="0.85"/>

  <g filter="url(#shadow)">
    <path d="M39 22H80L96 38V95C96 101.627 90.627 107 84 107H39C32.373 107 27 101.627 27 95V34C27 27.373 32.373 22 39 22Z" fill="url(#page)"/>
    <path d="M80 22V35C80 37.209 81.791 39 84 39H96L80 22Z" fill="#BFDBFE"/>
    <path d="M39 22H80L96 38V95C96 101.627 90.627 107 84 107H39C32.373 107 27 101.627 27 95V34C27 27.373 32.373 22 39 22Z" stroke="#DBEAFE" stroke-width="1.5"/>
  </g>

  <path d="M43 80V48" stroke="#0F172A" stroke-opacity="0.72" stroke-width="2.6" stroke-linecap="round"/>
  <path d="M43 80H86" stroke="#0F172A" stroke-opacity="0.72" stroke-width="2.6" stroke-linecap="round"/>
  <path d="M47 75C52 66 56 61 62 63C69 65 69 75 76 70C82 65 83 55 89 50" stroke="url(#curve)" stroke-width="4.4" stroke-linecap="round"/>

  <circle cx="52" cy="69" r="3.2" fill="#0284C7"/>
  <circle cx="61" cy="63" r="3.2" fill="#0284C7"/>
  <circle cx="72" cy="72" r="3.2" fill="#0284C7"/>
  <circle cx="84" cy="56" r="3.2" fill="#0284C7"/>
  <circle cx="52" cy="69" r="6.2" stroke="#7DD3FC" stroke-opacity="0.45" stroke-width="1.5"/>
  <circle cx="72" cy="72" r="6.2" stroke="#7DD3FC" stroke-opacity="0.45" stroke-width="1.5"/>

  <path d="M42 38H64" stroke="#334155" stroke-opacity="0.45" stroke-width="3" stroke-linecap="round"/>
  <path d="M42 44H73" stroke="#334155" stroke-opacity="0.24" stroke-width="3" stroke-linecap="round"/>
  <text x="66" y="58" text-anchor="middle" font-family="Inter, Segoe UI, Arial, sans-serif" font-size="13" font-weight="800" letter-spacing="0.8" fill="#0F172A" fill-opacity="0.78">mathe</text>

  <rect x="38" y="89" width="57" height="20" rx="10" fill="url(#chip)"/>
  <circle cx="52" cy="99" r="4" fill="#F8FAFC"/>
  <circle cx="67" cy="99" r="4" fill="#F8FAFC"/>
  <circle cx="82" cy="99" r="4" fill="#F8FAFC"/>
  <path d="M56 99H63M71 99H78" stroke="#F8FAFC" stroke-width="2.4" stroke-linecap="round"/>

  <path d="M100 78C105.523 78 110 82.477 110 88C110 93.523 105.523 98 100 98C94.477 98 90 93.523 90 88C90 82.477 94.477 78 100 78Z" fill="#0F172A" fill-opacity="0.28"/>
  <path d="M96 88.4L99 91.4L105 84.6" stroke="#ECFEFF" stroke-width="2.8" stroke-linecap="round" stroke-linejoin="round"/>
</svg>
